<svg width="1396" height="338" viewBox="0 0 1396 338" fill="none" xmlns="http://www.w3.org/2000/svg">
<g clip-path="url(#clip0_64_4)">
<path d="M1367.4 213.617C1367.4 188.862 1346.86 167.921 1321.55 167.921C1296.25 167.921 1275.72 188.385 1275.72 213.617C1275.72 239.315 1296.25 259.307 1321.55 259.307C1346.86 259.307 1367.4 238.838 1367.4 213.617ZM1395.57 286.442H1370.74V267.88C1357.85 280.256 1340.17 288.343 1320.6 288.343C1279.05 288.343 1245.63 254.549 1245.63 213.137C1245.63 172.199 1279.05 138.408 1320.6 138.408C1340.17 138.408 1357.37 146.025 1370.26 158.872V140.791H1395.09V286.442H1395.57Z" fill="black"/>
<path d="M1226.41 199.399V284.502H1197.43V199.399C1197.43 181.426 1182.71 167.247 1165.14 167.247C1147.08 167.247 1132.36 181.427 1132.36 199.399V284.502H1103.38V140.77H1127.61V153.065C1138.06 144.085 1151.83 138.408 1166.55 138.408C1199.81 138.408 1226.41 165.831 1226.41 199.399Z" fill="black"/>
<path d="M1043.98 213.617C1043.98 188.862 1023.44 167.921 998.138 167.921C972.825 167.921 952.294 188.385 952.294 213.617C952.294 239.315 972.825 259.307 998.138 259.307C1023.92 259.307 1043.98 238.838 1043.98 213.617ZM1072.62 286.442H1047.79V267.88C1034.9 280.256 1017.24 288.343 997.655 288.343C956.112 288.343 922.685 254.549 922.685 213.137C922.685 172.199 956.112 138.408 997.655 138.408C1017.24 138.408 1034.43 146.025 1047.31 158.872V140.791H1072.15V286.442H1072.62Z" fill="black"/>
<path d="M873.835 134.688V142.801H919.163V168.564H873.835V288.343H845.795V135.642C845.795 103.67 868.225 84.58 896.269 84.58H930.379L919.163 111.782H896.268C884.118 111.783 873.835 122.28 873.835 134.688Z" fill="black"/>
<path d="M790.235 213.617C790.235 188.862 769.703 167.921 744.4 167.921C719.087 167.921 698.556 188.385 698.556 213.617C698.556 239.315 719.087 259.307 744.4 259.307C769.703 259.307 790.235 238.838 790.235 213.617ZM818.886 286.442H794.056V267.88C781.16 280.256 763.493 288.343 743.916 288.343C702.373 288.343 668.947 254.549 668.947 213.137C668.947 172.199 702.373 138.408 743.916 138.408C763.493 138.408 780.689 146.025 793.575 158.872V140.791H818.408V286.442H818.886Z" fill="black"/>
<path d="M661.033 166.28H645.046C627.174 166.28 613.062 177.812 613.062 196.554V284.501H584.37V138.408H607.888V150.904C615.412 143.211 628.114 138.408 641.756 138.408H672.795L661.033 166.28Z" fill="black"/>
<path d="M557.457 183.08C555.132 242.41 509.978 288.344 453.654 288.344C394.074 288.344 349.853 238.584 349.853 179.256C349.853 118.962 397.8 69.204 455.982 69.204C482.518 69.204 508.114 80.688 529.997 101.742L512.774 123.269C496.013 108.442 476.001 98.388 455.982 98.388C413.156 98.388 378.249 134.75 378.249 179.255C378.249 224.227 411.296 259.155 453.654 259.155C491.825 259.155 521.614 230.445 527.2 194.08H441.087V168.246H557.457V183.08Z" fill="black"/>
<path d="M306.621 149.57C306.149 143.836 305.206 137.146 303.319 129.978C301.432 122.81 298.602 114.686 294.828 106.563C290.582 98.439 285.393 89.837 278.789 81.714C275.958 78.369 273.128 75.502 270.298 72.157C275.015 53.043 264.638 36.796 264.638 36.796C246.712 35.84 235.391 42.53 231.145 45.397C230.673 44.919 229.73 44.919 228.786 44.441C225.956 43.007 222.654 42.052 219.351 41.096C216.049 40.14 212.747 39.184 209.445 38.229C206.143 37.273 202.841 36.796 199.067 36.317C198.595 36.317 197.652 36.317 197.18 35.839C189.161 10.513 166.99 0 166.99 0C141.989 16.247 137.271 38.706 137.271 38.706C137.271 38.706 137.271 39.184 136.799 40.14C135.383 40.618 133.968 41.096 132.553 41.574C130.666 42.052 128.779 43.007 126.892 43.485C125.005 44.441 123.118 44.919 121.231 45.875C117.458 47.309 113.684 49.22 109.91 51.609C106.136 53.521 102.834 55.91 99.532 58.299C99.06 58.299 98.589 57.821 98.589 57.821C63.681 44.442 33.019 60.689 33.019 60.689C30.188 97.961 46.699 121.854 50.001 126.155C49.058 128.544 48.586 130.933 47.642 133.323C45.284 141.924 42.925 150.525 41.981 159.604C41.981 161.038 41.509 161.994 41.509 163.427C9.435 179.675 0 212.169 0 212.169C26.888 243.229 58.021 245.141 58.021 245.141C61.795 252.309 66.512 258.998 71.701 265.689C74.06 268.556 75.947 270.946 78.305 273.335C68.399 301.528 79.72 324.943 79.72 324.943C109.439 325.899 129.251 311.563 133.025 308.218C135.855 309.173 139.157 310.129 141.988 311.085C150.95 313.474 160.385 314.907 169.82 315.385C172.179 315.385 174.537 315.385 176.896 315.385H177.839H178.782H180.197H181.613C195.764 335.455 220.294 338.323 220.294 338.323C237.748 319.686 238.691 301.051 238.691 296.75C238.691 296.75 238.691 296.75 238.691 296.271C238.691 295.793 238.691 295.793 238.691 295.793C238.691 295.315 238.691 295.315 238.691 294.838C242.465 292.448 245.767 289.581 249.069 286.236C256.145 279.546 262.277 272.378 267.465 264.732C267.937 263.777 268.409 263.298 268.881 262.343C288.693 263.298 302.845 249.918 302.845 249.918C299.543 228.893 287.749 218.857 285.391 216.946C285.391 216.946 285.391 216.946 284.919 216.946C284.919 216.946 284.447 216.946 284.447 216.468C284.447 215.034 284.447 214.078 284.919 212.645C284.919 210.256 284.919 208.344 284.919 205.956V204.044V203.089V202.611C284.919 202.132 284.919 202.132 284.919 202.132V200.698V198.787C284.919 198.308 284.919 197.353 284.919 196.875C284.919 196.397 284.919 195.92 284.919 194.964V193.053L284.447 191.142C283.975 188.752 283.504 186.364 283.032 184.452C281.145 175.373 277.371 166.771 272.654 159.126C267.937 151.48 262.276 144.79 255.672 138.578C249.068 132.844 241.992 128.065 234.444 124.721C226.896 121.376 218.877 118.987 210.858 118.031C207.556 118.987 203.31 118.509 199.536 118.509H198.121H197.649H197.177H196.705H195.29C194.818 118.509 194.346 118.509 193.874 118.509C191.988 118.509 190.101 118.987 187.742 119.464C179.722 120.898 172.647 123.765 166.043 127.588C159.439 131.411 153.778 136.668 149.061 141.924C144.344 147.658 141.041 153.87 138.211 160.083C135.852 166.295 134.437 172.985 133.965 179.675C133.965 181.109 133.965 183.02 133.965 184.453C133.965 184.932 133.965 185.409 133.965 185.409V186.843C133.965 187.799 133.965 188.277 133.965 189.232C134.437 192.578 134.908 195.445 135.852 198.79C137.739 205.002 140.569 210.259 143.872 215.037C147.175 219.815 151.42 223.639 155.665 226.506C159.911 229.372 164.628 231.762 169.345 233.195C174.062 234.628 178.308 235.106 183.025 235.106C183.497 235.106 183.968 235.106 184.44 235.106C184.912 235.106 184.912 235.106 185.383 235.106C185.855 235.106 185.855 235.106 186.327 235.106C186.799 235.106 187.27 235.106 187.742 235.106H188.214H188.686C189.158 235.106 189.158 235.106 189.629 235.106C190.1 235.106 190.572 235.106 191.045 234.628C191.517 234.628 191.988 234.628 192.46 234.15C193.403 234.15 194.347 233.672 195.291 233.194C197.178 232.716 199.064 231.76 200.48 230.804C201.895 229.849 203.782 228.893 205.197 227.937C205.669 227.459 206.14 227.459 206.14 226.982C207.555 225.548 208.027 223.637 206.612 222.204C205.669 220.769 203.781 220.769 202.366 221.248C201.894 221.248 201.423 221.726 201.423 221.726C200.008 222.205 199.064 222.682 197.649 223.16C196.234 223.639 194.819 224.116 193.403 224.116C192.46 224.116 191.988 224.116 191.045 224.594C190.573 224.594 190.101 224.594 190.101 224.594C189.629 224.594 189.158 224.594 189.158 224.594C188.686 224.594 188.215 224.594 188.215 224.594C187.743 224.594 187.272 224.594 186.8 224.594C186.328 224.594 186.8 224.594 186.8 224.594H186.328H185.856C185.384 224.594 184.912 224.594 184.44 224.594C181.138 224.116 177.836 223.16 174.534 221.727C171.232 220.293 167.93 217.905 165.099 215.515C162.269 213.125 159.91 209.781 158.023 206.436C156.136 203.091 154.721 198.79 154.249 194.967C153.777 193.056 153.777 190.666 153.777 188.755C153.777 188.277 153.777 187.8 153.777 186.844V186.366C153.777 185.887 153.777 185.887 153.777 185.41C153.777 184.454 154.249 183.02 154.249 182.064C155.664 172.986 160.381 164.384 166.986 157.694C168.873 156.261 170.759 154.349 172.647 152.916C174.534 151.482 176.893 150.526 178.779 149.093C181.138 148.137 183.025 147.181 185.383 146.704C187.742 146.225 190.1 145.748 192.459 145.27C193.874 145.27 194.818 145.27 196.233 145.27C196.705 145.27 196.705 145.27 197.176 145.27H198.119H198.591C198.591 145.27 199.063 145.27 198.591 145.27H199.063H200.007C202.837 145.27 205.196 145.748 208.026 146.225C213.215 147.181 218.404 149.093 223.121 151.959C232.556 157.216 240.575 165.339 245.292 175.374C247.65 180.152 249.538 185.409 250.481 191.144C250.481 192.578 250.953 194.011 250.953 195.445V196.4V197.356C250.953 197.834 250.953 197.834 250.953 198.311C250.953 198.79 250.953 199.267 250.953 199.267V200.223V201.179C250.953 201.657 250.953 203.09 250.953 203.568C250.953 205.002 250.481 206.435 250.481 208.346C250.481 209.78 250.009 211.213 250.009 212.647C249.537 214.081 249.537 215.514 249.066 216.948C248.122 219.815 247.179 222.682 246.235 225.55C243.876 231.284 241.046 236.54 237.744 241.32C230.668 251.354 220.762 259 209.912 264.257C204.251 266.646 198.59 268.558 192.458 269.514C189.628 269.992 186.326 270.469 183.496 270.469H183.024H182.552H181.609H180.193H179.25C179.25 270.469 179.722 270.469 179.25 270.469H178.778C177.363 270.469 175.476 270.469 174.061 269.991C167.457 269.513 161.325 268.557 155.192 266.645C149.06 264.734 142.927 262.345 137.267 259.478C125.945 253.266 115.567 245.142 108.02 234.629C104.246 229.372 100.472 224.116 97.642 218.382C94.811 212.648 92.453 206.436 91.038 200.701C89.151 194.489 88.208 188.277 87.736 182.064V181.109V180.631V180.152V179.674V178.719V178.24V177.762V176.806V175.372V174.894V174.415C87.736 173.459 87.736 172.982 87.736 172.026C87.736 168.681 88.208 165.814 88.68 162.469C89.152 159.124 89.623 156.257 90.095 152.912C90.567 149.567 91.51 146.7 92.454 143.354C94.341 137.142 96.227 130.93 99.058 125.196C104.247 113.727 111.323 103.693 119.342 95.569C121.229 93.657 123.588 91.746 125.946 89.834C128.305 87.923 130.663 86.49 133.022 84.578C135.38 83.144 137.739 81.711 140.098 80.277C141.514 79.799 142.457 78.843 143.872 78.366C144.344 77.888 145.287 77.888 145.759 77.41C146.231 76.932 147.175 76.932 147.646 76.454C150.476 75.499 152.835 74.543 155.665 73.587C156.137 73.587 157.081 73.109 157.552 73.109C158.023 73.109 158.967 72.631 159.439 72.631C160.854 72.153 162.27 71.675 163.685 71.675C164.157 71.675 165.1 71.197 165.572 71.197C166.044 71.197 166.987 70.719 167.459 70.719C167.931 70.719 168.874 70.241 169.346 70.241H170.289H171.233C171.705 70.241 172.648 70.241 173.12 69.763C174.063 69.763 174.535 69.763 175.478 69.285C175.95 69.285 177.365 69.285 177.837 68.807C178.309 68.807 178.78 68.807 179.252 68.807H180.195H180.667H181.139C182.082 68.807 182.554 68.807 183.497 68.807H184.912C184.912 68.807 185.384 68.807 184.912 68.807H185.384H185.856C186.328 68.807 187.271 68.807 187.743 68.807C190.573 68.807 192.931 68.807 195.762 68.807C200.951 68.807 206.14 69.763 211.329 70.719C221.707 72.631 231.142 75.975 239.633 80.276C248.124 84.577 256.143 89.833 262.747 95.568C263.219 96.046 263.69 96.523 264.163 96.523C264.635 97.001 265.106 97.479 265.578 97.479C266.521 98.435 266.993 98.913 267.936 99.868C268.88 100.824 269.351 101.302 270.294 102.258C271.237 103.214 271.709 103.692 272.653 104.647C275.483 107.514 278.313 110.859 280.672 114.205C285.389 120.417 289.163 126.629 292.465 132.841C292.465 133.319 292.937 133.797 292.937 133.797C292.937 134.275 293.409 134.752 293.409 134.752C293.881 135.708 294.352 136.186 294.352 137.141C294.824 138.097 294.824 138.575 295.295 139.053C295.766 139.531 295.767 140.487 296.238 140.965C297.181 143.832 298.597 146.221 299.069 149.089C300.484 152.912 301.427 156.735 302.371 160.08C302.843 161.514 303.786 161.991 305.201 161.991C306.616 161.991 307.559 160.557 307.559 159.601C307.092 158.171 306.621 154.349 306.621 149.57Z" fill="black"/>
</g>
<defs>
<clipPath id="clip0_64_4">
<rect width="1396" height="338" fill="white"/>
</clipPath>
</defs>
</svg>
