<svg width="1264" height="338" viewBox="0 0 1264 338" fill="none" xmlns="http://www.w3.org/2000/svg">
<path d="M336.476 206.328L212.511 68.1333L168.238 18.7778L123.965 68.1333L0 206.328L44.2727 255.683L168.238 117.488L292.203 255.683L336.476 206.328Z" fill="black"/>
<path d="M166.283 312.999C193.293 312.999 215.189 291.615 215.189 265.236C215.189 238.857 193.293 217.473 166.283 217.473C139.273 217.473 117.376 238.857 117.376 265.236C117.376 291.615 139.273 312.999 166.283 312.999Z" fill="black"/>
<path d="M1206.52 230.2C1195.96 230.2 1186.43 228.147 1177.92 224.04C1169.42 219.933 1162.6 213.92 1157.46 206C1152.48 197.933 1149.98 188.033 1149.98 176.3C1149.98 165.3 1152.33 155.767 1157.02 147.7C1161.86 139.633 1168.24 133.4 1176.16 129C1184.23 124.6 1193.25 122.4 1203.22 122.4C1213.49 122.4 1222.44 124.38 1230.06 128.34C1237.69 132.153 1243.63 137.433 1247.88 144.18C1252.14 150.927 1254.26 158.627 1254.26 167.28C1254.26 169.773 1253.9 172.56 1253.16 175.64C1252.43 178.72 1251.48 181.213 1250.3 183.12H1175.72C1176.46 188.84 1178.22 193.68 1181 197.64C1183.94 201.453 1187.75 204.387 1192.44 206.44C1197.14 208.347 1202.64 209.3 1208.94 209.3C1215.4 209.3 1221.26 208.347 1226.54 206.44C1231.82 204.387 1236.81 201.673 1241.5 198.3L1249.86 216.34C1243.85 220.887 1237.18 224.333 1229.84 226.68C1222.66 229.027 1214.88 230.2 1206.52 230.2ZM1175.72 165.52H1228.3C1228.45 165.08 1228.52 164.713 1228.52 164.42C1228.52 163.98 1228.52 163.613 1228.52 163.32C1228.52 159.067 1227.64 155.4 1225.88 152.32C1224.12 149.24 1221.41 146.893 1217.74 145.28C1214.22 143.52 1209.6 142.64 1203.88 142.64C1199.19 142.64 1194.86 143.593 1190.9 145.5C1187.09 147.26 1183.86 149.827 1181.22 153.2C1178.58 156.573 1176.75 160.68 1175.72 165.52Z" fill="black"/>
<path d="M968.999 228V124.6H993.199V137.36C996.132 132.52 1000.09 128.853 1005.08 126.36C1010.21 123.72 1016.37 122.4 1023.56 122.4C1030.6 122.4 1036.69 123.867 1041.82 126.8C1046.95 129.733 1050.91 133.767 1053.7 138.9C1056.93 133.473 1061.47 129.367 1067.34 126.58C1073.21 123.793 1079.95 122.4 1087.58 122.4C1099.61 122.4 1108.92 125.773 1115.52 132.52C1122.27 139.267 1125.64 149.68 1125.64 163.76V228H1100.56V167.5C1100.56 159.433 1098.95 153.567 1095.72 149.9C1092.64 146.087 1088.09 144.18 1082.08 144.18C1074.75 144.18 1069.17 146.893 1065.36 152.32C1061.69 157.6 1059.86 165.007 1059.86 174.54V228H1034.56V167.5C1034.56 159.433 1033.02 153.567 1029.94 149.9C1026.86 146.087 1022.31 144.18 1016.3 144.18C1009.11 144.18 1003.61 146.893 999.799 152.32C995.986 157.6 994.079 165.007 994.079 174.54V228H968.999Z" fill="black"/>
<path d="M913.999 228V124.6H939.079V228H913.999ZM926.539 105.68C921.992 105.68 918.399 104.36 915.759 101.72C913.119 99.08 911.799 95.7067 911.799 91.6C911.799 87.4933 913.119 84.1933 915.759 81.7C918.399 79.06 921.992 77.74 926.539 77.74C930.939 77.74 934.459 79.06 937.099 81.7C939.885 84.34 941.279 87.7133 941.279 91.82C941.279 95.9267 939.885 99.3 937.099 101.94C934.459 104.433 930.939 105.68 926.539 105.68Z" fill="black"/>
<path d="M873.387 229.32C861.653 229.32 853.073 226.68 847.647 221.4C842.22 216.12 839.507 207.907 839.507 196.76V145.5H817.727V124.6H839.507V95.12H864.807V124.6H890.767V145.5H864.807V194.56C864.807 199.107 865.98 202.553 868.327 204.9C870.673 207.247 874.193 208.42 878.887 208.42C880.647 208.42 882.7 208.347 885.047 208.2C887.54 208.053 889.447 207.833 890.767 207.54V227.34C888.713 227.927 886.073 228.367 882.847 228.66C879.767 229.1 876.613 229.32 873.387 229.32Z" fill="black"/>
<path d="M695.073 268.04V124.6H719.273V139.56C722.5 134.427 727.047 130.32 732.913 127.24C738.78 124.013 745.82 122.4 754.033 122.4C763.42 122.4 771.853 124.6 779.333 129C786.813 133.253 792.68 139.413 796.933 147.48C801.333 155.547 803.533 165.153 803.533 176.3C803.533 187.447 801.333 197.053 796.933 205.12C792.68 213.187 786.813 219.42 779.333 223.82C771.853 228.073 763.42 230.2 754.033 230.2C746.26 230.2 739.513 228.807 733.793 226.02C728.073 223.087 723.527 219.347 720.153 214.8V268.04H695.073ZM748.533 208.42C754.253 208.42 759.313 207.1 763.713 204.46C768.113 201.82 771.56 198.08 774.053 193.24C776.547 188.4 777.793 182.753 777.793 176.3C777.793 169.7 776.547 164.053 774.053 159.36C771.56 154.52 768.113 150.78 763.713 148.14C759.313 145.5 754.253 144.18 748.533 144.18C742.813 144.18 737.68 145.5 733.133 148.14C728.733 150.78 725.287 154.52 722.793 159.36C720.447 164.053 719.273 169.7 719.273 176.3C719.273 182.753 720.447 188.4 722.793 193.24C725.287 198.08 728.733 201.82 733.133 204.46C737.68 207.1 742.813 208.42 748.533 208.42Z" fill="black"/>
<path d="M562.3 268.04V124.6H586.5V139.56C589.726 134.427 594.273 130.32 600.14 127.24C606.006 124.013 613.046 122.4 621.26 122.4C630.646 122.4 639.08 124.6 646.56 129C654.04 133.253 659.906 139.413 664.16 147.48C668.56 155.547 670.76 165.153 670.76 176.3C670.76 187.447 668.56 197.053 664.16 205.12C659.906 213.187 654.04 219.42 646.56 223.82C639.08 228.073 630.646 230.2 621.26 230.2C613.486 230.2 606.74 228.807 601.02 226.02C595.3 223.087 590.753 219.347 587.38 214.8V268.04H562.3ZM615.76 208.42C621.48 208.42 626.54 207.1 630.94 204.46C635.34 201.82 638.786 198.08 641.28 193.24C643.773 188.4 645.02 182.753 645.02 176.3C645.02 169.7 643.773 164.053 641.28 159.36C638.786 154.52 635.34 150.78 630.94 148.14C626.54 145.5 621.48 144.18 615.76 144.18C610.04 144.18 604.906 145.5 600.36 148.14C595.96 150.78 592.513 154.52 590.02 159.36C587.673 164.053 586.5 169.7 586.5 176.3C586.5 182.753 587.673 188.4 590.02 193.24C592.513 198.08 595.96 201.82 600.36 204.46C604.906 207.1 610.04 208.42 615.76 208.42Z" fill="black"/>
<path d="M468.2 230.2C448.547 230.2 433.073 225.14 421.78 215.02C410.633 204.9 405.06 189.133 405.06 167.72V81.04H431.9V167.72C431.9 176.667 433.293 184.073 436.08 189.94C438.867 195.66 442.973 199.913 448.4 202.7C453.827 205.487 460.427 206.88 468.2 206.88C475.973 206.88 482.573 205.487 488 202.7C493.427 199.913 497.533 195.66 500.32 189.94C503.107 184.073 504.5 176.667 504.5 167.72V81.04H531.34V167.72C531.34 189.133 525.693 204.9 514.4 215.02C503.253 225.14 487.853 230.2 468.2 230.2Z" fill="black"/>
</svg>
